# xmcd
#
# Track frame offsets:
#	182
#	16287
#	29190
#	41492
#	56210
#	71260
#	87252
#	102757
#	114240
#	126760
#	139022
#	154145
#	168837
#	180760
#	191415
#	205065
#
# Disc length: 2925 seconds
#
# Revision: 0
# Processed by: cddbd v1.4PL0 Copyright (c) Steve Scherf et al.
# Submitted via: audiograbber 1.81.01
#
DISCID=cc0b6b10
DTITLE=Billie Jo Spears - Country classics
DYEAR=1900
DGENRE=
TTITLE0=Blanket on the ground
TTITLE1='57 Chevrolet
TTITLE2=What I've got in mind
TTITLE3=(Hey won't you play) Another somebody done somebody wrong song
TTITLE4=I will survive
TTITLE5=I fall to pieces
TTITLE6=Sweet music man
TTITLE7=Stand by your man
TTITLE8=I don't wanna play house
TTITLE9=Appartment nr 9
TTITLE10=Loving him was easier (than anything i'll ever do again)
TTITLE11=Hurt
TTITLE12=Misty blue
TTITLE13=Your good girl's gonna go bad
TTITLE14=Yesterday
TTITLE15=Husbands and wives
EXTD=
EXTT0=
EXTT1=
EXTT2=
EXTT3=
EXTT4=
EXTT5=
EXTT6=
EXTT7=
EXTT8=
EXTT9=
EXTT10=
EXTT11=
EXTT12=
EXTT13=
EXTT14=
EXTT15=
PLAYORDER=
